HIERARCHY
ROOT simHips
{
  OFFSET -1.65124 97.5425 47.1461
  CHANNELS 6 Xposition Yposition Zposition Zrotation Xrotation Yrotation
  JOINT simSpine
  {
    OFFSET -0.000355721 21.3001 -0.016921
    CHANNELS 3 Zrotation Xrotation Yrotation
    JOINT simLeftArm
    {
      OFFSET 13.5181 21.3012 0
      CHANNELS 3 Zrotation Xrotation Yrotation
      JOINT simLeftForeArm
      {
        OFFSET 24.5783 0 0
        CHANNELS 3 Zrotation Xrotation Yrotation
        JOINT simLeftHand
        {
          OFFSET 24.5783 0 0
          CHANNELS 3 Zrotation Xrotation Yrotation
          End Site
          {
            OFFSET 7.32568 1.52588e-005 0.0169305
          }
        }
      }
    }
    JOINT simHead
    {
      OFFSET 0 27.4458 -0.00489235
      CHANNELS 3 Zrotation Xrotation Yrotation
      End Site
      {
        OFFSET 0 0 0
      }
    }
    JOINT simRightArm
    {
      OFFSET -13.5174 21.3012 0
      CHANNELS 3 Zrotation Xrotation Yrotation
      JOINT simRightForeArm
      {
        OFFSET -24.5783 0 0
        CHANNELS 3 Zrotation Xrotation Yrotation
        JOINT simRightHand
        {
          OFFSET -24.5783 0 0
          CHANNELS 3 Zrotation Xrotation Yrotation
          End Site
          {
            OFFSET -7.32568 1.52588e-005 0.0169305
          }
        }
      }
    }
  }
  JOINT simRightUpLeg
  {
    OFFSET -8.44614 -9.41038 0.835684
    CHANNELS 3 Zrotation Xrotation Yrotation
    JOINT simRightLeg
    {
      OFFSET 0 -40.9639 0
      CHANNELS 3 Zrotation Xrotation Yrotation
      JOINT simRightFoot
      {
        OFFSET 0 -40.9639 0
        CHANNELS 3 Zrotation Xrotation Yrotation
        End Site
        {
          OFFSET 0.50614 -9.67405 14.6709
        }
      }
    }
  }
  JOINT simLeftUpLeg
  {
    OFFSET 8.44614 -9.41038 0.835684
    CHANNELS 3 Zrotation Xrotation Yrotation
    JOINT simLeftLeg
    {
      OFFSET 0 -40.9639 0
      CHANNELS 3 Zrotation Xrotation Yrotation
      JOINT simLeftFoot
      {
        OFFSET 0 -40.9639 0
        CHANNELS 3 Zrotation Xrotation Yrotation
        End Site
        {
          OFFSET -0.50614 -9.67405 14.6709
        }
      }
    }
  }
}
MOTION
Frames:	14
Frame Time:	0.0333333
-2.14148 97.5977 46.8699 -7.11394 9.34817 -3.0509 7.5184 -4.07364 2.92255 -58.8248 42.349 -37.116 26.8334 -25.798 -60.5581 0.462763 18.9719 -2.76928 -1.33288 8.50265 -1.34031 22.5984 46.329 65.2534 -27.7576 -29.2484 65.6449 -0.0353389 -5.37587 -0.757724 6.25382 -2.70064 24.142 -0.00168758 1.82193 0.077542 -5.23762 -9.74327 -23.1224 1.55713 -4.65429 -39.9111 0.00617548 18.4902 0.754848 13.739 -21.3775 50.8901 
-2.14403 97.6163 46.8491 -7.21268 9.30201 -3.44155 7.81275 -3.84484 2.89942 -59.1524 42.0058 -36.5487 26.7989 -25.6892 -60.3851 0.472903 19.1682 -2.80021 -1.37194 9.51444 -0.713708 22.7078 39.7173 67.0756 -28.4941 -36.1552 76.9654 -0.0116722 -2.50426 -0.352091 6.45522 -2.46581 24.6375 -0.00142147 1.62538 0.077534 -5.19211 -9.59584 -23.2052 1.61396 -4.37582 -40.1501 0.000135534 18.5325 0.795767 14.2009 -21.6669 51.6192 
-2.15378 97.6645 46.7971 -7.27583 8.9334 -3.29503 7.55793 -3.17711 3.04754 -58.9638 42.03 -36.8179 26.8711 -25.9177 -60.7484 0.470713 19.1256 -2.79352 -0.820241 9.03424 -1.24631 25.3977 36.6981 66.4167 -28.1233 -39.4284 83.1035 -0.0149154 4.3949 0.618386 6.46488 -2.0872 24.4808 -0.00137875 1.59383 0.0775328 -5.20328 -9.60219 -23.2484 1.76196 -4.19428 -39.6056 0.000409669 18.4999 0.761147 13.6938 -21.4295 50.8641 
-2.16847 97.6522 46.7491 -7.48129 8.63513 -2.88449 7.23899 -2.7418 3.24914 -58.8887 41.9552 -36.9918 26.959 -26.2016 -61.2017 0.457953 18.8765 -2.75432 -0.161103 7.91436 -1.94102 26.628 41.6313 64.5718 -28.2745 -36.6529 79.2074 -0.0421148 5.39699 0.761053 6.60635 -1.853 23.8968 -0.00145353 1.64906 0.0775349 -5.19419 -9.65318 -23.0935 2.19611 -4.24954 -38.5846 0.000480506 18.4221 0.679507 12.367 -20.6304 49.3375 
-2.24549 97.614 46.8588 -7.34083 8.70111 -3.13243 6.62194 -3.37139 4.05454 -59.0798 41.8982 -36.8493 26.9366 -26.1258 -61.0813 0.464808 19.0114 -2.77552 0.669623 7.61371 -2.39679 25.334 49.7267 65.3321 -27.0107 -25.9715 58.7282 0.000929436 -0.799368 -0.113024 6.48735 -1.77734 24.1145 -0.00124946 1.49832 0.0775293 -5.18348 -9.62923 -23.09 1.99223 -4.04363 -38.98 0.000370344 18.4678 0.716452 12.9765 -20.9701 50.1206 
-2.26795 97.6088 46.933 -7.36027 8.64033 -3.14569 6.06262 -3.58041 5.09454 -57.6587 42.5349 -38.1719 26.8481 -25.8426 -60.6284 0.464323 19.0016 -2.77398 1.66547 6.34977 -3.8477 26.3914 54.0967 64.4096 -23.3161 -17.8507 48.0621 -0.104775 -9.58576 -1.35846 6.56681 -1.66994 24.2365 -0.00133502 1.56152 0.0775316 -5.25249 -9.74321 -23.1972 1.99763 -3.92758 -39.1071 -0.000615081 18.4633 0.721568 13.1296 -21.044 50.2273 
-2.06966 97.6183 46.9799 -7.70402 8.42901 -2.30132 6.20573 -3.91675 4.08119 -58.3065 42.5775 -36.9046 26.8404 -25.8201 -60.5938 0.464111 18.9968 -2.77325 1.07884 7.12167 -3.72049 24.1153 51.2892 65.7719 -25.5507 -22.4462 55.3223 -0.203237 -12.5138 -1.78875 6.70357 -1.37723 24.0396 -0.00128501 1.52458 0.0775302 -5.44151 -9.91304 -23.7755 2.13964 -3.74257 -39.8193 0.00810415 18.3643 0.70254 12.972 -20.8327 50.0632 
-1.91878 97.6191 47.002 -7.85019 8.44608 -2.66331 6.45418 -3.9306 3.86727 -58.5532 42.2002 -36.4052 26.7867 -25.6492 -60.3207 0.481022 19.3237 -2.8248 0.690604 7.84309 -2.27916 24.6363 43.671 66.5829 -28.4447 -33.1143 71.2384 -0.0431505 -6.47964 -0.913279 6.78693 -1.37716 24.0347 -0.000840118 1.50472 0.0775295 -5.30247 -9.77152 -23.3876 2.0834 -3.45969 -40.2687 -0.000197535 18.3851 0.743101 13.5327 -21.11 50.9767 
-1.73642 97.7077 47.007 -7.67888 8.33734 -2.74768 6.1877 -3.77109 3.97051 -57.9561 42.6275 -36.5811 26.8582 -25.8761 -60.6821 0.453712 18.795 -2.74148 0.805477 7.54166 -1.52393 25.4456 39.5963 67.7702 -28.1076 -39.6019 83.4398 -0.00356727 -1.67303 -0.235338 6.47225 -1.36377 23.8081 -0.00042792 1.61196 0.0775335 -5.26658 -9.77626 -23.1982 2.01745 -3.59221 -39.1328 0.00664907 18.3084 0.694952 12.9088 -20.8608 49.705 
-1.63183 97.7046 47.0131 -7.86655 8.007 -2.61432 6.32722 -3.44151 4.33884 -57.9082 42.8295 -36.8083 26.9663 -26.2251 -61.2388 0.440353 18.5269 -2.69951 1.15728 6.80059 -2.13786 23.7235 44.0338 68.3564 -28.3829 -35.9616 77.5837 -0.0132319 -0.677863 -0.0964424 6.59909 -1.06986 23.5878 -3.01237e-005 1.72982 0.0775381 -5.3164 -9.91323 -23.1602 2.15836 -3.34147 -38.9925 0.00450259 18.2921 0.676033 12.6344 -20.6705 49.3764 
-1.59882 97.6459 47.0747 -7.45081 8.01893 -2.90722 5.75411 -3.905 4.99924 -58.4315 42.5907 -36.282 27.0271 -26.4292 -61.565 0.444275 18.5797 -2.70775 1.60178 6.4946 -2.94735 19.9776 50.8901 71.1806 -26.7207 -25.2092 57.683 -0.116107 -10.629 -1.5077 6.14717 -0.960558 24.0487 0.000702697 1.60021 0.077533 -5.38779 -9.94439 -23.4467 1.51411 -3.14187 -39.4313 -0.000780499 18.4118 0.716211 13.0984 -20.9858 50.174 
-1.5267 97.5547 47.0426 -7.38693 8.55441 -3.03135 5.71703 -4.31 5.64926 -58.2465 42.54 -36.4353 26.981 -26.2751 -61.3185 0.44628 18.6417 -2.71747 1.56531 5.14766 -3.55977 10.8939 52.4837 77.1817 -25.2876 -21.7475 54.7361 -0.330496 -15.9511 -2.30379 6.07218 -1.65669 24.0763 0.00107145 1.73952 0.0775385 -5.33118 -9.87297 -23.3169 1.36429 -3.65588 -39.638 0.00267042 18.4351 0.730361 13.3268 -21.0691 50.5712 
-1.42469 97.6458 46.9975 -7.61376 8.76771 -2.5604 6.07868 -4.32457 4.73876 -59.5262 42.0176 -34.9321 26.9301 -26.1083 -61.0533 0.44653 18.6502 -2.71881 0.679491 5.81435 -2.74173 17.5125 46.8647 73.6948 -27.5635 -28.4459 64.4128 -0.135566 -10.7389 -1.52557 6.27102 -1.89771 24.1538 0.00157542 1.77895 0.0775402 -5.45218 -9.91129 -23.8313 1.66141 -4.17356 -39.4956 0.00181824 18.4248 0.692838 12.6719 -20.7148 49.7988 
-1.33144 97.6995 46.9428 -7.44335 8.56446 -2.94382 5.93094 -3.77277 4.97981 -59.4472 42.1498 -34.9823 26.951 -26.1769 -61.1633 0.457561 18.8693 -2.7532 0.694764 5.88998 -1.65333 20.3483 37.1397 73.9103 -28.5056 -35.6216 76.0184 -0.0612723 -6.93322 -0.97954 5.9706 -1.65927 24.1096 0.00231236 1.62305 0.0786452 -5.33127 -9.86344 -23.3861 1.19778 -3.6139 -40.2944 -0.0054701 18.4322 0.742151 13.479 -21.0247 51.1123 
